<svg width="120" height="53" viewBox="0 0 120 53" fill="none" xmlns="http://www.w3.org/2000/svg">
<path d="M26.3255 43.5356C13.9157 43.5356 7.7104 43.5356 3.85535 39.7781C-1.66893e-05 36.021 0 29.818 0 22.2C0 12.5322 -1.66893e-05 7.51481 3.85535 3.75739C7.7104 -2.38419e-07 13.9157 0 26.3255 0H91.6745C104.084 0 110.289 -2.38419e-07 114.145 3.75739C118 7.51481 118 12.9643 118 22.2C118 29.3858 118 36.021 114.145 39.7781C111.995 41.8731 109.116 42.7999 104.837 43.2101" fill="white"/>
<path d="M81.5118 43.5356C85.5808 43.5356 90.0604 45.1366 94.1527 47.2078C100.726 50.5339 105 53 110 52C113 49.5 106.944 46.7912 106.331 40.2184L106.192 38.7249" fill="white"/>
<path d="M10.0568 20V11.2727H11.1136V15.1591H15.767V11.2727H16.8239V20H15.767V16.0966H11.1136V20H10.0568ZM21.4624 20.1364C20.8714 20.1364 20.353 19.9957 19.907 19.7145C19.4638 19.4332 19.1172 19.0398 18.8672 18.5341C18.62 18.0284 18.4964 17.4375 18.4964 16.7614C18.4964 16.0795 18.62 15.4844 18.8672 14.9759C19.1172 14.4673 19.4638 14.0724 19.907 13.7912C20.353 13.5099 20.8714 13.3693 21.4624 13.3693C22.0533 13.3693 22.5703 13.5099 23.0135 13.7912C23.4595 14.0724 23.8061 14.4673 24.0533 14.9759C24.3033 15.4844 24.4283 16.0795 24.4283 16.7614C24.4283 17.4375 24.3033 18.0284 24.0533 18.5341C23.8061 19.0398 23.4595 19.4332 23.0135 19.7145C22.5703 19.9957 22.0533 20.1364 21.4624 20.1364ZM21.4624 19.233C21.9112 19.233 22.2805 19.1179 22.5703 18.8878C22.8601 18.6577 23.0746 18.3551 23.2138 17.9801C23.353 17.6051 23.4226 17.1989 23.4226 16.7614C23.4226 16.3239 23.353 15.9162 23.2138 15.5384C23.0746 15.1605 22.8601 14.8551 22.5703 14.6222C22.2805 14.3892 21.9112 14.2727 21.4624 14.2727C21.0135 14.2727 20.6442 14.3892 20.3544 14.6222C20.0646 14.8551 19.8501 15.1605 19.7109 15.5384C19.5717 15.9162 19.5021 16.3239 19.5021 16.7614C19.5021 17.1989 19.5717 17.6051 19.7109 17.9801C19.8501 18.3551 20.0646 18.6577 20.3544 18.8878C20.6442 19.1179 21.0135 19.233 21.4624 19.233ZM26.9691 11.2727V20H25.9634V11.2727H26.9691ZM30.7372 20.1534C30.3224 20.1534 29.946 20.0753 29.608 19.919C29.2699 19.7599 29.0014 19.5312 28.8026 19.233C28.6037 18.9318 28.5043 18.5682 28.5043 18.142C28.5043 17.767 28.5781 17.4631 28.7259 17.2301C28.8736 16.9943 29.071 16.8097 29.3182 16.6761C29.5653 16.5426 29.8381 16.4432 30.1364 16.3778C30.4375 16.3097 30.7401 16.2557 31.044 16.2159C31.4418 16.1648 31.7642 16.1264 32.0114 16.1009C32.2614 16.0724 32.4432 16.0256 32.5568 15.9602C32.6733 15.8949 32.7315 15.7812 32.7315 15.6193V15.5852C32.7315 15.1648 32.6165 14.8381 32.3864 14.6051C32.1591 14.3722 31.8139 14.2557 31.3509 14.2557C30.8707 14.2557 30.4943 14.3608 30.2216 14.571C29.9489 14.7812 29.7571 15.0057 29.6463 15.2443L28.6918 14.9034C28.8622 14.5057 29.0895 14.196 29.3736 13.9744C29.6605 13.75 29.973 13.5937 30.3111 13.5057C30.652 13.4148 30.9872 13.3693 31.3168 13.3693C31.527 13.3693 31.7685 13.3949 32.0412 13.446C32.3168 13.4943 32.5824 13.5952 32.8381 13.7486C33.0966 13.902 33.3111 14.1335 33.4815 14.4432C33.652 14.7528 33.7372 15.1676 33.7372 15.6875V20H32.7315V19.1136H32.6804C32.6122 19.2557 32.4986 19.4077 32.3395 19.5696C32.1804 19.7315 31.9688 19.8693 31.7045 19.983C31.4403 20.0966 31.1179 20.1534 30.7372 20.1534ZM30.8906 19.25C31.2884 19.25 31.6236 19.1719 31.8963 19.0156C32.1719 18.8594 32.3793 18.6577 32.5185 18.4105C32.6605 18.1634 32.7315 17.9034 32.7315 17.6307V16.7102C32.6889 16.7614 32.5952 16.8082 32.4503 16.8509C32.3082 16.8906 32.1435 16.9261 31.956 16.9574C31.7713 16.9858 31.5909 17.0114 31.4148 17.0341C31.2415 17.054 31.1009 17.071 30.9929 17.0852C30.7315 17.1193 30.4872 17.1747 30.2599 17.2514C30.0355 17.3253 29.8537 17.4375 29.7145 17.5881C29.5781 17.7358 29.5099 17.9375 29.5099 18.1932C29.5099 18.5426 29.6392 18.8068 29.8977 18.9858C30.1591 19.1619 30.4901 19.25 30.8906 19.25ZM36.9023 11.2727L36.8171 17.5455H35.8285L35.7433 11.2727H36.9023ZM36.3228 20.0682C36.1126 20.0682 35.9322 19.9929 35.7816 19.8423C35.631 19.6918 35.5558 19.5114 35.5558 19.3011C35.5558 19.0909 35.631 18.9105 35.7816 18.7599C35.9322 18.6094 36.1126 18.5341 36.3228 18.5341C36.533 18.5341 36.7134 18.6094 36.864 18.7599C37.0146 18.9105 37.0898 19.0909 37.0898 19.3011C37.0898 19.4403 37.0543 19.5682 36.9833 19.6847C36.9151 19.8011 36.8228 19.8949 36.7063 19.9659C36.5927 20.0341 36.4648 20.0682 36.3228 20.0682ZM47.1967 13.4545C47.1456 13.0227 46.9382 12.6875 46.5746 12.4489C46.2109 12.2102 45.7649 12.0909 45.2365 12.0909C44.8501 12.0909 44.5121 12.1534 44.2223 12.2784C43.9354 12.4034 43.7109 12.5753 43.549 12.794C43.3899 13.0128 43.3104 13.2614 43.3104 13.5398C43.3104 13.7727 43.3658 13.973 43.4766 14.1406C43.5902 14.3054 43.7351 14.4432 43.9112 14.554C44.0874 14.6619 44.272 14.7514 44.4652 14.8224C44.6584 14.8906 44.8359 14.946 44.9979 14.9886L45.8842 15.2273C46.1115 15.2869 46.3643 15.3693 46.6428 15.4744C46.924 15.5795 47.1925 15.723 47.4482 15.9048C47.7067 16.0838 47.9197 16.3139 48.0874 16.5952C48.255 16.8764 48.3388 17.2216 48.3388 17.6307C48.3388 18.1023 48.2152 18.5284 47.968 18.9091C47.7237 19.2898 47.3658 19.5923 46.8942 19.8168C46.4254 20.0412 45.8558 20.1534 45.1854 20.1534C44.5604 20.1534 44.0192 20.0526 43.5618 19.8509C43.1072 19.6491 42.7493 19.3679 42.4879 19.0071C42.2294 18.6463 42.0831 18.2273 42.049 17.75H43.1399C43.1683 18.0795 43.2791 18.3523 43.4723 18.5682C43.6683 18.7812 43.9155 18.9403 44.2138 19.0455C44.5149 19.1477 44.8388 19.1989 45.1854 19.1989C45.5888 19.1989 45.951 19.1335 46.272 19.0028C46.593 18.8693 46.8473 18.6847 47.0348 18.4489C47.2223 18.2102 47.3161 17.9318 47.3161 17.6136C47.3161 17.3239 47.2351 17.0881 47.0732 16.9062C46.9112 16.7244 46.6982 16.5767 46.4339 16.4631C46.1697 16.3494 45.8842 16.25 45.5774 16.1648L44.5036 15.858C43.8217 15.6619 43.282 15.3821 42.8842 15.0185C42.4865 14.6548 42.2876 14.179 42.2876 13.5909C42.2876 13.1023 42.4197 12.6761 42.6839 12.3125C42.951 11.946 43.3089 11.6619 43.7578 11.4602C44.2095 11.2557 44.7138 11.1534 45.2706 11.1534C45.8331 11.1534 46.3331 11.2543 46.7706 11.456C47.2081 11.6548 47.5547 11.9276 47.8104 12.2741C48.0689 12.6207 48.2053 13.0142 48.2195 13.4545H47.1967ZM52.5991 20.1364C52.0082 20.1364 51.4897 19.9957 51.0437 19.7145C50.6005 19.4332 50.2539 19.0398 50.0039 18.5341C49.7567 18.0284 49.6332 17.4375 49.6332 16.7614C49.6332 16.0795 49.7567 15.4844 50.0039 14.9759C50.2539 14.4673 50.6005 14.0724 51.0437 13.7912C51.4897 13.5099 52.0082 13.3693 52.5991 13.3693C53.19 13.3693 53.707 13.5099 54.1502 13.7912C54.5962 14.0724 54.9428 14.4673 55.19 14.9759C55.44 15.4844 55.565 16.0795 55.565 16.7614C55.565 17.4375 55.44 18.0284 55.19 18.5341C54.9428 19.0398 54.5962 19.4332 54.1502 19.7145C53.707 19.9957 53.19 20.1364 52.5991 20.1364ZM52.5991 19.233C53.0479 19.233 53.4173 19.1179 53.707 18.8878C53.9968 18.6577 54.2113 18.3551 54.3505 17.9801C54.4897 17.6051 54.5593 17.1989 54.5593 16.7614C54.5593 16.3239 54.4897 15.9162 54.3505 15.5384C54.2113 15.1605 53.9968 14.8551 53.707 14.6222C53.4173 14.3892 53.0479 14.2727 52.5991 14.2727C52.1502 14.2727 51.7809 14.3892 51.4911 14.6222C51.2013 14.8551 50.9869 15.1605 50.8477 15.5384C50.7085 15.9162 50.6388 16.3239 50.6388 16.7614C50.6388 17.1989 50.7085 17.6051 50.8477 17.9801C50.9869 18.3551 51.2013 18.6577 51.4911 18.8878C51.7809 19.1179 52.1502 19.233 52.5991 19.233ZM57.5135 22.4545C57.343 22.4545 57.1911 22.4403 57.0575 22.4119C56.924 22.3864 56.8317 22.3608 56.7805 22.3352L57.0362 21.4489C57.2805 21.5114 57.4964 21.5341 57.6839 21.517C57.8714 21.5 58.0376 21.4162 58.1825 21.2656C58.3303 21.1179 58.4652 20.8778 58.5874 20.5455L58.7749 20.0341L56.3544 13.4545H57.4453L59.2521 18.6705H59.3203L61.1271 13.4545H62.218L59.4396 20.9545C59.3146 21.2926 59.1598 21.5724 58.9751 21.794C58.7905 22.0185 58.576 22.1847 58.3317 22.2926C58.0902 22.4006 57.8175 22.4545 57.5135 22.4545ZM66.4261 12.794V11.2727H73.5938V12.794H70.9219V20H69.098V12.794H66.4261ZM76.7482 20.1278C76.0863 20.1278 75.5138 19.9872 75.0309 19.706C74.5508 19.4219 74.18 19.027 73.9187 18.5213C73.6573 18.0128 73.5266 17.4233 73.5266 16.7528C73.5266 16.0767 73.6573 15.4858 73.9187 14.9801C74.18 14.4716 74.5508 14.0767 75.0309 13.7955C75.5138 13.5114 76.0863 13.3693 76.7482 13.3693C77.4102 13.3693 77.9812 13.5114 78.4613 13.7955C78.9442 14.0767 79.3164 14.4716 79.5778 14.9801C79.8391 15.4858 79.9698 16.0767 79.9698 16.7528C79.9698 17.4233 79.8391 18.0128 79.5778 18.5213C79.3164 19.027 78.9442 19.4219 78.4613 19.706C77.9812 19.9872 77.4102 20.1278 76.7482 20.1278ZM76.7567 18.7216C77.0579 18.7216 77.3093 18.6364 77.511 18.4659C77.7127 18.2926 77.8647 18.0568 77.967 17.7585C78.0721 17.4602 78.1246 17.1207 78.1246 16.7401C78.1246 16.3594 78.0721 16.0199 77.967 15.7216C77.8647 15.4233 77.7127 15.1875 77.511 15.0142C77.3093 14.8409 77.0579 14.7543 76.7567 14.7543C76.4528 14.7543 76.1971 14.8409 75.9897 15.0142C75.7852 15.1875 75.6303 15.4233 75.5252 15.7216C75.4229 16.0199 75.3718 16.3594 75.3718 16.7401C75.3718 17.1207 75.4229 17.4602 75.5252 17.7585C75.6303 18.0568 75.7852 18.2926 75.9897 18.4659C76.1971 18.6364 76.4528 18.7216 76.7567 18.7216ZM84.6317 13.4545V14.8182H80.69V13.4545H84.6317ZM81.5849 11.8864H83.4002V17.9886C83.4002 18.1562 83.4258 18.2869 83.4769 18.3807C83.5281 18.4716 83.5991 18.5355 83.69 18.5724C83.7837 18.6094 83.8917 18.6278 84.0138 18.6278C84.0991 18.6278 84.1843 18.6207 84.2695 18.6065C84.3548 18.5895 84.4201 18.5767 84.4656 18.5682L84.7511 19.919C84.6602 19.9474 84.5323 19.9801 84.3675 20.017C84.2028 20.0568 84.0025 20.081 83.7667 20.0895C83.3292 20.1065 82.9457 20.0483 82.6161 19.9148C82.2894 19.7812 82.0352 19.5739 81.8533 19.2926C81.6715 19.0114 81.582 18.6562 81.5849 18.2273V11.8864ZM89.2958 13.4545V14.8182H85.354V13.4545H89.2958ZM86.2489 11.8864H88.0643V17.9886C88.0643 18.1562 88.0898 18.2869 88.141 18.3807C88.1921 18.4716 88.2631 18.5355 88.354 18.5724C88.4478 18.6094 88.5558 18.6278 88.6779 18.6278C88.7631 18.6278 88.8484 18.6207 88.9336 18.6065C89.0188 18.5895 89.0842 18.5767 89.1296 18.5682L89.4151 19.919C89.3242 19.9474 89.1964 19.9801 89.0316 20.017C88.8668 20.0568 88.6665 20.081 88.4308 20.0895C87.9933 20.1065 87.6097 20.0483 87.2802 19.9148C86.9535 19.7812 86.6992 19.5739 86.5174 19.2926C86.3356 19.0114 86.2461 18.6562 86.2489 18.2273V11.8864ZM90.4783 20V13.4545H92.2937V20H90.4783ZM91.3903 12.6108C91.1204 12.6108 90.8888 12.5213 90.6957 12.3423C90.5053 12.1605 90.4102 11.9432 90.4102 11.6903C90.4102 11.4403 90.5053 11.2259 90.6957 11.0469C90.8888 10.8651 91.1204 10.7741 91.3903 10.7741C91.6602 10.7741 91.8903 10.8651 92.0806 11.0469C92.2738 11.2259 92.3704 11.4403 92.3704 11.6903C92.3704 11.9432 92.2738 12.1605 92.0806 12.3423C91.8903 12.5213 91.6602 12.6108 91.3903 12.6108ZM96.7053 20.1278C96.0348 20.1278 95.4581 19.9858 94.9751 19.7017C94.495 19.4148 94.1257 19.017 93.8672 18.5085C93.6115 18 93.4837 17.4148 93.4837 16.7528C93.4837 16.0824 93.6129 15.4943 93.8714 14.9886C94.1328 14.4801 94.5036 14.0838 94.9837 13.7997C95.4638 13.5128 96.0348 13.3693 96.6967 13.3693C97.2678 13.3693 97.7678 13.473 98.1967 13.6804C98.6257 13.8878 98.9652 14.179 99.2152 14.554C99.4652 14.929 99.603 15.3693 99.6286 15.875H97.9155C97.8672 15.5483 97.7393 15.2855 97.532 15.0866C97.3274 14.8849 97.0589 14.7841 96.7266 14.7841C96.4453 14.7841 96.1996 14.8608 95.9893 15.0142C95.782 15.1648 95.62 15.3849 95.5036 15.6747C95.3871 15.9645 95.3288 16.3153 95.3288 16.7273C95.3288 17.1449 95.3857 17.5 95.4993 17.7926C95.6158 18.0852 95.7791 18.3082 95.9893 18.4616C96.1996 18.6151 96.4453 18.6918 96.7266 18.6918C96.9339 18.6918 97.12 18.6491 97.2848 18.5639C97.4524 18.4787 97.5902 18.3551 97.6982 18.1932C97.8089 18.0284 97.8814 17.831 97.9155 17.6009H99.6286C99.6001 18.1009 99.4638 18.5412 99.2195 18.9219C98.978 19.2997 98.6442 19.5952 98.218 19.8082C97.7919 20.0213 97.2876 20.1278 96.7053 20.1278ZM103.748 20.1278C103.086 20.1278 102.514 19.9872 102.031 19.706C101.551 19.4219 101.18 19.027 100.919 18.5213C100.657 18.0128 100.527 17.4233 100.527 16.7528C100.527 16.0767 100.657 15.4858 100.919 14.9801C101.18 14.4716 101.551 14.0767 102.031 13.7955C102.514 13.5114 103.086 13.3693 103.748 13.3693C104.41 13.3693 104.981 13.5114 105.461 13.7955C105.944 14.0767 106.316 14.4716 106.578 14.9801C106.839 15.4858 106.97 16.0767 106.97 16.7528C106.97 17.4233 106.839 18.0128 106.578 18.5213C106.316 19.027 105.944 19.4219 105.461 19.706C104.981 19.9872 104.41 20.1278 103.748 20.1278ZM103.757 18.7216C104.058 18.7216 104.309 18.6364 104.511 18.4659C104.713 18.2926 104.865 18.0568 104.967 17.7585C105.072 17.4602 105.125 17.1207 105.125 16.7401C105.125 16.3594 105.072 16.0199 104.967 15.7216C104.865 15.4233 104.713 15.1875 104.511 15.0142C104.309 14.8409 104.058 14.7543 103.757 14.7543C103.453 14.7543 103.197 14.8409 102.99 15.0142C102.785 15.1875 102.63 15.4233 102.525 15.7216C102.423 16.0199 102.372 16.3594 102.372 16.7401C102.372 17.1207 102.423 17.4602 102.525 17.7585C102.63 18.0568 102.785 18.2926 102.99 18.4659C103.197 18.6364 103.453 18.7216 103.757 18.7216ZM109.846 18.8068L109.778 19.267C109.73 19.5909 109.656 19.9375 109.556 20.3068C109.46 20.6761 109.359 21.0241 109.254 21.3509C109.149 21.6776 109.062 21.9375 108.994 22.1307H108.227C108.264 21.9489 108.312 21.7088 108.372 21.4105C108.431 21.1122 108.491 20.7784 108.551 20.4091C108.613 20.0426 108.664 19.6676 108.704 19.2841L108.755 18.8068H109.846ZM12.767 26.4545V27.3068H9.375V26.4545H12.767ZM10.3636 24.8864H11.3693V31.125C11.3693 31.4091 11.4105 31.6222 11.4929 31.7642C11.5781 31.9034 11.6861 31.9972 11.8168 32.0455C11.9503 32.0909 12.0909 32.1136 12.2386 32.1136C12.3494 32.1136 12.4403 32.108 12.5114 32.0966C12.5824 32.0824 12.6392 32.071 12.6818 32.0625L12.8864 32.9659C12.8182 32.9915 12.723 33.017 12.6009 33.0426C12.4787 33.071 12.3239 33.0852 12.1364 33.0852C11.8523 33.0852 11.5739 33.0241 11.3011 32.902C11.0313 32.7798 10.8068 32.5938 10.6278 32.3438C10.4517 32.0938 10.3636 31.7784 10.3636 31.3977V24.8864ZM18.4048 30.3239V26.4545H19.4105V33H18.4048V31.892H18.3366C18.1832 32.2244 17.9446 32.5071 17.6207 32.7401C17.2969 32.9702 16.8878 33.0852 16.3935 33.0852C15.9844 33.0852 15.6207 32.9957 15.3026 32.8168C14.9844 32.6349 14.7344 32.3622 14.5526 31.9986C14.3707 31.6321 14.2798 31.1705 14.2798 30.6136V26.4545H15.2855V30.5455C15.2855 31.0227 15.419 31.4034 15.6861 31.6875C15.956 31.9716 16.2997 32.1136 16.7173 32.1136C16.9673 32.1136 17.2216 32.0497 17.4801 31.9219C17.7415 31.794 17.9602 31.598 18.1364 31.3338C18.3153 31.0696 18.4048 30.733 18.4048 30.3239ZM26.5536 33.1534C26.1388 33.1534 25.7624 33.0753 25.4244 32.919C25.0863 32.7599 24.8178 32.5312 24.619 32.233C24.4201 31.9318 24.3207 31.5682 24.3207 31.142C24.3207 30.767 24.3945 30.4631 24.5423 30.2301C24.69 29.9943 24.8874 29.8097 25.1346 29.6761C25.3817 29.5426 25.6545 29.4432 25.9528 29.3778C26.2539 29.3097 26.5565 29.2557 26.8604 29.2159C27.2582 29.1648 27.5806 29.1264 27.8278 29.1009C28.0778 29.0724 28.2596 29.0256 28.3732 28.9602C28.4897 28.8949 28.5479 28.7812 28.5479 28.6193V28.5852C28.5479 28.1648 28.4329 27.8381 28.2028 27.6051C27.9755 27.3722 27.6303 27.2557 27.1673 27.2557C26.6871 27.2557 26.3107 27.3608 26.038 27.571C25.7653 27.7812 25.5735 28.0057 25.4627 28.2443L24.5082 27.9034C24.6786 27.5057 24.9059 27.196 25.19 26.9744C25.4769 26.75 25.7894 26.5937 26.1275 26.5057C26.4684 26.4148 26.8036 26.3693 27.1332 26.3693C27.3434 26.3693 27.5849 26.3949 27.8576 26.446C28.1332 26.4943 28.3988 26.5952 28.6545 26.7486C28.913 26.902 29.1275 27.1335 29.2979 27.4432C29.4684 27.7528 29.5536 28.1676 29.5536 28.6875V33H28.5479V32.1136H28.4968C28.4286 32.2557 28.315 32.4077 28.1559 32.5696C27.9968 32.7315 27.7852 32.8693 27.521 32.983C27.2567 33.0966 26.9343 33.1534 26.5536 33.1534ZM26.707 32.25C27.1048 32.25 27.44 32.1719 27.7127 32.0156C27.9883 31.8594 28.1957 31.6577 28.3349 31.4105C28.4769 31.1634 28.5479 30.9034 28.5479 30.6307V29.7102C28.5053 29.7614 28.4116 29.8082 28.2667 29.8509C28.1246 29.8906 27.9599 29.9261 27.7724 29.9574C27.5877 29.9858 27.4073 30.0114 27.2312 30.0341C27.0579 30.054 26.9173 30.071 26.8093 30.0852C26.5479 30.1193 26.3036 30.1747 26.0763 30.2514C25.8519 30.3253 25.6701 30.4375 25.5309 30.5881C25.3945 30.7358 25.3263 30.9375 25.3263 31.1932C25.3263 31.5426 25.4556 31.8068 25.7141 31.9858C25.9755 32.1619 26.3065 32.25 26.707 32.25ZM36.0256 27.9205L35.1222 28.1761C35.0653 28.0256 34.9815 27.8793 34.8707 27.7372C34.7628 27.5923 34.6151 27.473 34.4276 27.3793C34.2401 27.2855 34 27.2386 33.7074 27.2386C33.3068 27.2386 32.973 27.331 32.706 27.5156C32.4418 27.6974 32.3097 27.929 32.3097 28.2102C32.3097 28.4602 32.4006 28.6577 32.5824 28.8026C32.7642 28.9474 33.0483 29.0682 33.4347 29.1648L34.4062 29.4034C34.9915 29.5455 35.4276 29.7628 35.7145 30.0554C36.0014 30.3452 36.1449 30.7187 36.1449 31.1761C36.1449 31.5511 36.0369 31.8864 35.821 32.1818C35.608 32.4773 35.3097 32.7102 34.9261 32.8807C34.5426 33.0511 34.0966 33.1364 33.5881 33.1364C32.9205 33.1364 32.3679 32.9915 31.9304 32.7017C31.4929 32.4119 31.2159 31.9886 31.0994 31.4318L32.054 31.1932C32.1449 31.5455 32.3168 31.8097 32.5696 31.9858C32.8253 32.1619 33.1591 32.25 33.571 32.25C34.0398 32.25 34.4119 32.1506 34.6875 31.9517C34.9659 31.75 35.1051 31.5085 35.1051 31.2273C35.1051 31 35.0256 30.8097 34.8665 30.6562C34.7074 30.5 34.4631 30.3835 34.1335 30.3068L33.0426 30.0511C32.4432 29.9091 32.0028 29.6889 31.7216 29.3906C31.4432 29.0895 31.304 28.7131 31.304 28.2614C31.304 27.892 31.4077 27.5653 31.6151 27.2812C31.8253 26.9972 32.1108 26.7741 32.4716 26.6122C32.8352 26.4503 33.2472 26.3693 33.7074 26.3693C34.3551 26.3693 34.8636 26.5114 35.233 26.7955C35.6051 27.0795 35.8693 27.4545 36.0256 27.9205ZM40.4031 33.1364C39.7724 33.1364 39.2283 32.9972 38.771 32.7188C38.3164 32.4375 37.9656 32.0455 37.7184 31.5426C37.4741 31.0369 37.3519 30.4489 37.3519 29.7784C37.3519 29.108 37.4741 28.517 37.7184 28.0057C37.9656 27.4915 38.3093 27.0909 38.7496 26.804C39.1928 26.5142 39.7099 26.3693 40.3008 26.3693C40.6417 26.3693 40.9783 26.4261 41.3107 26.5398C41.6431 26.6534 41.9457 26.8381 42.2184 27.0938C42.4911 27.3466 42.7085 27.6818 42.8704 28.0994C43.0323 28.517 43.1133 29.0312 43.1133 29.642V30.0682H38.0678V29.1989H42.0906C42.0906 28.8295 42.0167 28.5 41.869 28.2102C41.7241 27.9205 41.5167 27.6918 41.2468 27.5241C40.9798 27.3565 40.6644 27.2727 40.3008 27.2727C39.9002 27.2727 39.5536 27.3722 39.261 27.571C38.9712 27.767 38.7482 28.0227 38.592 28.3381C38.4357 28.6534 38.3576 28.9915 38.3576 29.3523V29.9318C38.3576 30.4261 38.4428 30.8452 38.6133 31.1889C38.7866 31.5298 39.0266 31.7898 39.3335 31.9688C39.6403 32.1449 39.9968 32.233 40.4031 32.233C40.6673 32.233 40.9059 32.196 41.119 32.1222C41.3349 32.0455 41.521 31.9318 41.6772 31.7812C41.8335 31.6278 41.9542 31.4375 42.0394 31.2102L43.011 31.483C42.9087 31.8125 42.7369 32.1023 42.4954 32.3523C42.2539 32.5994 41.9556 32.7926 41.6005 32.9318C41.2454 33.0682 40.8462 33.1364 40.4031 33.1364ZM49.2795 27.9205L48.3761 28.1761C48.3192 28.0256 48.2354 27.8793 48.1246 27.7372C48.0167 27.5923 47.869 27.473 47.6815 27.3793C47.494 27.2855 47.2539 27.2386 46.9613 27.2386C46.5607 27.2386 46.2269 27.331 45.9599 27.5156C45.6957 27.6974 45.5636 27.929 45.5636 28.2102C45.5636 28.4602 45.6545 28.6577 45.8363 28.8026C46.0181 28.9474 46.3022 29.0682 46.6886 29.1648L47.6602 29.4034C48.2454 29.5455 48.6815 29.7628 48.9684 30.0554C49.2553 30.3452 49.3988 30.7187 49.3988 31.1761C49.3988 31.5511 49.2908 31.8864 49.0749 32.1818C48.8619 32.4773 48.5636 32.7102 48.18 32.8807C47.7965 33.0511 47.3505 33.1364 46.842 33.1364C46.1744 33.1364 45.6218 32.9915 45.1843 32.7017C44.7468 32.4119 44.4698 31.9886 44.3533 31.4318L45.3079 31.1932C45.3988 31.5455 45.5707 31.8097 45.8235 31.9858C46.0792 32.1619 46.413 32.25 46.8249 32.25C47.2937 32.25 47.6658 32.1506 47.9414 31.9517C48.2198 31.75 48.359 31.5085 48.359 31.2273C48.359 31 48.2795 30.8097 48.1204 30.6562C47.9613 30.5 47.717 30.3835 47.3874 30.3068L46.2965 30.0511C45.6971 29.9091 45.2567 29.6889 44.9755 29.3906C44.6971 29.0895 44.5579 28.7131 44.5579 28.2614C44.5579 27.892 44.6616 27.5653 44.869 27.2812C45.0792 26.9972 45.3647 26.7741 45.7255 26.6122C46.0891 26.4503 46.5011 26.3693 46.9613 26.3693C47.609 26.3693 48.1175 26.5114 48.4869 26.7955C48.859 27.0795 49.1232 27.4545 49.2795 27.9205ZM53.5717 33.1364C52.9808 33.1364 52.4624 32.9957 52.0163 32.7145C51.5732 32.4332 51.2266 32.0398 50.9766 31.5341C50.7294 31.0284 50.6058 30.4375 50.6058 29.7614C50.6058 29.0795 50.7294 28.4844 50.9766 27.9759C51.2266 27.4673 51.5732 27.0724 52.0163 26.7912C52.4624 26.5099 52.9808 26.3693 53.5717 26.3693C54.1626 26.3693 54.6797 26.5099 55.1229 26.7912C55.5689 27.0724 55.9155 27.4673 56.1626 27.9759C56.4126 28.4844 56.5376 29.0795 56.5376 29.7614C56.5376 30.4375 56.4126 31.0284 56.1626 31.5341C55.9155 32.0398 55.5689 32.4332 55.1229 32.7145C54.6797 32.9957 54.1626 33.1364 53.5717 33.1364ZM53.5717 32.233C54.0206 32.233 54.3899 32.1179 54.6797 31.8878C54.9695 31.6577 55.1839 31.3551 55.3232 30.9801C55.4624 30.6051 55.532 30.1989 55.532 29.7614C55.532 29.3239 55.4624 28.9162 55.3232 28.5384C55.1839 28.1605 54.9695 27.8551 54.6797 27.6222C54.3899 27.3892 54.0206 27.2727 53.5717 27.2727C53.1229 27.2727 52.7536 27.3892 52.4638 27.6222C52.174 27.8551 51.9595 28.1605 51.8203 28.5384C51.6811 28.9162 51.6115 29.3239 51.6115 29.7614C51.6115 30.1989 51.6811 30.6051 51.8203 30.9801C51.9595 31.3551 52.174 31.6577 52.4638 31.8878C52.7536 32.1179 53.1229 32.233 53.5717 32.233ZM58.0728 33V26.4545H59.0444V27.4432H59.1126C59.2319 27.1193 59.4478 26.8565 59.7603 26.6548C60.0728 26.4531 60.4251 26.3523 60.8171 26.3523C60.891 26.3523 60.9833 26.3537 61.0941 26.3565C61.2049 26.3594 61.2887 26.3636 61.3455 26.3693V27.392C61.3114 27.3835 61.2333 27.3707 61.1112 27.3537C60.9918 27.3338 60.8654 27.3239 60.7319 27.3239C60.4137 27.3239 60.1296 27.3906 59.8796 27.5241C59.6325 27.6548 59.4364 27.8366 59.2915 28.0696C59.1495 28.2997 59.0785 28.5625 59.0785 28.858V33H58.0728ZM71.2649 26.4545L68.8445 33H67.8217L65.4013 26.4545H66.4922L68.299 31.6705H68.3672L70.174 26.4545H71.2649ZM72.5923 33V26.4545H73.598V33H72.5923ZM73.1037 25.3636C72.9077 25.3636 72.7386 25.2969 72.5966 25.1634C72.4574 25.0298 72.3878 24.8693 72.3878 24.6818C72.3878 24.4943 72.4574 24.3338 72.5966 24.2003C72.7386 24.0668 72.9077 24 73.1037 24C73.2997 24 73.4673 24.0668 73.6065 24.2003C73.7486 24.3338 73.8196 24.4943 73.8196 24.6818C73.8196 24.8693 73.7486 25.0298 73.6065 25.1634C73.4673 25.2969 73.2997 25.3636 73.1037 25.3636ZM75.44 33V26.4545H76.4116V27.4432H76.4798C76.5991 27.1193 76.815 26.8565 77.1275 26.6548C77.44 26.4531 77.7923 26.3523 78.1843 26.3523C78.2582 26.3523 78.3505 26.3537 78.4613 26.3565C78.5721 26.3594 78.6559 26.3636 78.7127 26.3693V27.392C78.6786 27.3835 78.6005 27.3707 78.4783 27.3537C78.359 27.3338 78.2326 27.3239 78.0991 27.3239C77.7809 27.3239 77.4968 27.3906 77.2468 27.5241C76.9996 27.6548 76.8036 27.8366 76.6587 28.0696C76.5167 28.2997 76.4457 28.5625 76.4457 28.858V33H75.44ZM83.1616 26.4545V27.3068H79.7695V26.4545H83.1616ZM80.7582 24.8864H81.7638V31.125C81.7638 31.4091 81.805 31.6222 81.8874 31.7642C81.9727 31.9034 82.0806 31.9972 82.2113 32.0455C82.3448 32.0909 82.4854 32.1136 82.6332 32.1136C82.744 32.1136 82.8349 32.108 82.9059 32.0966C82.9769 32.0824 83.0337 32.071 83.0763 32.0625L83.2809 32.9659C83.2127 32.9915 83.1175 33.017 82.9954 33.0426C82.8732 33.071 82.7184 33.0852 82.5309 33.0852C82.2468 33.0852 81.9684 33.0241 81.6957 32.902C81.4258 32.7798 81.2013 32.5938 81.0224 32.3438C80.8462 32.0938 80.7582 31.7784 80.7582 31.3977V24.8864ZM88.7994 30.3239V26.4545H89.805V33H88.7994V31.892H88.7312C88.5778 32.2244 88.3391 32.5071 88.0153 32.7401C87.6914 32.9702 87.2823 33.0852 86.788 33.0852C86.3789 33.0852 86.0153 32.9957 85.6971 32.8168C85.3789 32.6349 85.1289 32.3622 84.9471 31.9986C84.7653 31.6321 84.6744 31.1705 84.6744 30.6136V26.4545H85.68V30.5455C85.68 31.0227 85.8136 31.4034 86.0806 31.6875C86.3505 31.9716 86.6942 32.1136 87.1119 32.1136C87.3619 32.1136 87.6161 32.0497 87.8746 31.9219C88.136 31.794 88.3548 31.598 88.5309 31.3338C88.7099 31.0696 88.7994 30.733 88.7994 30.3239ZM93.5732 33.1534C93.1584 33.1534 92.782 33.0753 92.4439 32.919C92.1058 32.7599 91.8374 32.5312 91.6385 32.233C91.4396 31.9318 91.3402 31.5682 91.3402 31.142C91.3402 30.767 91.4141 30.4631 91.5618 30.2301C91.7095 29.9943 91.907 29.8097 92.1541 29.6761C92.4013 29.5426 92.674 29.4432 92.9723 29.3778C93.2734 29.3097 93.576 29.2557 93.88 29.2159C94.2777 29.1648 94.6001 29.1264 94.8473 29.1009C95.0973 29.0724 95.2791 29.0256 95.3928 28.9602C95.5092 28.8949 95.5675 28.7812 95.5675 28.6193V28.5852C95.5675 28.1648 95.4524 27.8381 95.2223 27.6051C94.995 27.3722 94.6499 27.2557 94.1868 27.2557C93.7067 27.2557 93.3303 27.3608 93.0575 27.571C92.7848 27.7812 92.593 28.0057 92.4822 28.2443L91.5277 27.9034C91.6982 27.5057 91.9254 27.196 92.2095 26.9744C92.4964 26.75 92.8089 26.5937 93.147 26.5057C93.4879 26.4148 93.8232 26.3693 94.1527 26.3693C94.3629 26.3693 94.6044 26.3949 94.8771 26.446C95.1527 26.4943 95.4183 26.5952 95.674 26.7486C95.9325 26.902 96.147 27.1335 96.3175 27.4432C96.4879 27.7528 96.5732 28.1676 96.5732 28.6875V33H95.5675V32.1136H95.5163C95.4482 32.2557 95.3345 32.4077 95.1754 32.5696C95.0163 32.7315 94.8047 32.8693 94.5405 32.983C94.2763 33.0966 93.9538 33.1534 93.5732 33.1534ZM93.7266 32.25C94.1243 32.25 94.4595 32.1719 94.7322 32.0156C95.0078 31.8594 95.2152 31.6577 95.3544 31.4105C95.4964 31.1634 95.5675 30.9034 95.5675 30.6307V29.7102C95.5249 29.7614 95.4311 29.8082 95.2862 29.8509C95.1442 29.8906 94.9794 29.9261 94.7919 29.9574C94.6072 29.9858 94.4268 30.0114 94.2507 30.0341C94.0774 30.054 93.9368 30.071 93.8288 30.0852C93.5675 30.1193 93.3232 30.1747 93.0959 30.2514C92.8714 30.3253 92.6896 30.4375 92.5504 30.5881C92.4141 30.7358 92.3459 30.9375 92.3459 31.1932C92.3459 31.5426 92.4751 31.8068 92.7337 31.9858C92.995 32.1619 93.326 32.25 93.7266 32.25ZM99.4144 24.2727V33H98.4087V24.2727H99.4144Z" fill="#8E858B"/>
</svg>
