<svg viewBox="0 0 1024 1024" xmlns="http://www.w3.org/2000/svg"><path d="M704.035 195.264c-25.723-223.168-363.168-223.354-389.39-.538-99.476 43.808-167.667 141.527-167.667 255.172 0 2.794.04 5.578.123 8.352l-.01-.407V960c.01 22.086 17.914 39.99 40 40h649.846c22.083-.022 39.98-17.918 40-40V457.344c-.786-116.673-70.844-216.793-171.07-261.352l-1.833-.727zm-113.222-61.92c9.157 8.473 16.693 18.542 22.194 29.788l.263.595c-31.364-7.442-67.377-11.715-104.387-11.727h-.008c-1.906 0-3.844 0-5.75.03-34.337.427-67.506 4.433-99.453 11.66l3.176-.604c22.21-35.208 60.897-58.254 104.967-58.254 30.128 0 57.74 10.77 79.196 28.672l-.197-.16zM632 696H383.47v-48H632zM383.47 920V776H632v144zm413.468 0H712V608c-.02-22.083-17.917-39.98-39.998-40H343.47c-22.09.01-39.992 17.912-40 40v312h-76.376V457.375c-1.814-152.53 142.314-223.718 277-225.343 2.148-.044 4.68-.07 7.218-.07 50.146 0 98.016 9.746 141.82 27.446l-2.542-.908c.527.234 1.088.344 1.63.555 83.988 28.94 143.482 106.758 144.72 198.642l.002.147zM672 376H352c-22.09 0-40 17.91-40 40s17.91 40 40 40h320c22.09 0 40-17.91 40-40s-17.91-40-40-40z"/></svg>